<?xml version="1.0" standalone="no"?>
<!DOCTYPE svg PUBLIC "-//W3C//DTD SVG 20010904//EN"
 "http://www.w3.org/TR/2001/REC-SVG-20010904/DTD/svg10.dtd">
<svg version="1.0" xmlns="http://www.w3.org/2000/svg"
 width="512.000000pt" height="512.000000pt" viewBox="0 0 512.000000 512.000000"
 preserveAspectRatio="xMidYMid meet">
<metadata>
Created by potrace 1.16, written by Peter Selinger 2001-2019
</metadata>
<g transform="translate(0.000000,512.000000) scale(0.100000,-0.100000)"
fill="#fff" stroke="none">
<path d="M178 5100 c-92 -49 -137 -158 -108 -262 6 -22 353 -518 865 -1240
471 -662 868 -1230 884 -1263 16 -33 34 -87 40 -119 7 -40 11 -384 11 -1055 0
-1125 -6 -1040 80 -1114 48 -41 87 -52 163 -45 68 6 1038 376 1074 410 14 13
35 41 46 63 22 40 22 43 27 905 5 863 5 865 27 919 29 70 -44 -35 908 1306
461 649 844 1194 851 1212 18 41 18 134 0 176 -7 18 -28 47 -46 65 -67 67 134
62 -2444 62 -2294 -1 -2342 -1 -2378 -20z m4543 -282 c-16 -24 -387 -547 -825
-1163 -445 -626 -811 -1151 -830 -1190 -19 -39 -44 -107 -55 -152 -20 -79 -21
-104 -21 -891 l0 -809 -422 -161 -423 -160 -5 981 c-6 970 -6 983 -27 1052
-32 104 -57 158 -111 238 -27 40 -403 571 -835 1180 -433 609 -787 1110 -787
1112 0 3 983 5 2185 5 l2186 0 -30 -42z"/>
</g>
</svg>
