<?xml version="1.0" standalone="no"?>
<!DOCTYPE svg PUBLIC "-//W3C//DTD SVG 20010904//EN"
 "http://www.w3.org/TR/2001/REC-SVG-20010904/DTD/svg10.dtd">
<svg version="1.0" xmlns="http://www.w3.org/2000/svg"
 width="512.000000pt" height="512.000000pt" viewBox="0 0 512.000000 512.000000"
 preserveAspectRatio="xMidYMid meet">
<metadata>
Created by potrace 1.16, written by Peter Selinger 2001-2019
</metadata>
<g transform="translate(0.000000,512.000000) scale(0.100000,-0.100000)"
fill="#fff" stroke="none">
<path d="M2370 5097 c-381 -114 -583 -502 -459 -881 12 -37 37 -93 56 -123 18
-31 33 -57 33 -59 0 -2 -30 -17 -66 -34 -233 -106 -419 -280 -531 -501 l-38
-74 0 75 c0 53 -6 85 -19 110 -30 58 -86 109 -143 130 -51 19 -79 20 -509 20
-479 0 -501 -2 -518 -45 -3 -9 -6 -83 -6 -165 l0 -148 -30 -12 c-41 -17 -99
-76 -121 -124 -30 -65 -26 -160 10 -230 16 -32 24 -59 19 -63 -39 -23 -62
-174 -38 -239 8 -19 8 -30 0 -38 -6 -6 -10 -89 -10 -221 l0 -212 25 -23 c23
-22 37 -25 125 -28 l100 -4 0 -1070 c0 -1137 -1 -1114 45 -1132 9 -3 109 -6
221 -6 204 0 205 0 229 25 l25 24 0 1081 0 1080 376 0 c207 0 374 -3 372 -7
-66 -130 -63 -115 -66 -310 l-4 -183 -101 0 c-106 -1 -124 -6 -145 -47 -9 -16
-12 -238 -12 -842 l0 -821 90 0 90 0 0 765 0 766 137 -3 138 -3 57 -575 57
-575 -25 -58 c-28 -63 -42 -178 -30 -241 4 -20 17 -45 28 -56 21 -19 36 -20
318 -20 l297 0 22 24 c22 23 23 31 19 138 -4 93 -8 121 -27 159 l-24 46 57
574 c31 316 56 577 56 582 0 4 50 7 110 7 81 0 110 -3 110 -12 0 -7 29 -266
63 -574 l63 -562 -31 -53 c-27 -50 -30 -63 -34 -167 -3 -107 -2 -115 20 -138
l22 -24 296 0 c319 1 320 1 341 54 24 65 2 223 -42 294 l-20 33 63 575 64 574
137 0 138 0 0 -765 0 -765 90 0 90 0 0 821 c0 604 -3 826 -12 842 -21 41 -39
46 -145 47 l-101 0 -4 183 c-3 195 0 180 -66 310 -2 4 165 7 372 7 l376 0 0
-1080 0 -1081 25 -24 c24 -25 25 -25 229 -25 112 0 212 3 221 6 46 18 45 -5
45 1132 l0 1070 100 4 c88 3 102 6 125 28 l25 23 0 212 0 212 -26 24 c-25 23
-31 24 -210 27 l-184 4 0 34 0 34 91 0 c90 0 123 9 146 39 18 23 17 340 -1
363 -21 28 -62 38 -150 38 l-84 0 -4 60 c-3 45 -10 66 -26 83 -22 21 -29 22
-290 25 -147 2 -282 0 -300 -3 -17 -3 -41 -16 -52 -27 -19 -21 -20 -36 -20
-335 l0 -313 -145 0 -145 0 19 48 c10 26 37 93 60 150 48 121 50 150 17 288
-88 362 -303 626 -630 774 -36 17 -66 32 -66 34 0 2 15 28 33 59 43 70 75 169
88 266 43 332 -171 649 -501 740 -105 30 -267 28 -370 -2z m316 -171 c244 -65
412 -317 374 -561 -41 -269 -308 -468 -571 -428 -214 34 -396 215 -429 428
-38 242 128 494 369 561 62 17 194 17 257 0z m-495 -1067 c42 -29 145 -74 209
-90 30 -7 102 -14 160 -14 58 0 130 7 160 14 65 16 168 61 212 92 28 21 35 21
77 10 60 -15 178 -71 238 -112 205 -140 334 -330 393 -580 l22 -93 -69 -173
-68 -173 -97 0 -98 0 0 398 c-1 418 0 416 -47 440 -31 17 -1415 17 -1446 0
-47 -24 -46 -22 -47 -440 l0 -398 -97 0 -98 0 -68 173 -69 173 22 93 c77 326
293 574 595 682 66 23 81 23 116 -2z m-1030 -308 c31 -32 35 -50 17 -84 -24
-47 -22 -46 -435 -47 l-393 0 0 80 0 80 391 0 391 0 29 -29z m184 -185 c-24
-56 -65 -236 -65 -283 0 -26 16 -82 41 -145 23 -57 50 -124 60 -150 l19 -48
-100 0 -100 0 0 259 0 259 29 12 c38 15 96 73 111 111 7 16 14 28 16 26 3 -2
-3 -20 -11 -41z m1805 -291 l0 -335 -590 0 -590 0 0 335 0 335 590 0 590 0 0
-335z m-2130 85 l0 -80 -397 0 c-394 0 -397 0 -420 22 -23 21 -30 59 -17 93
16 41 52 44 452 45 l382 0 0 -80z m3500 -170 l0 -250 -165 0 -165 0 0 250 0
250 165 0 165 0 0 -250z m-3500 -170 l0 -80 -397 0 c-394 0 -397 0 -420 22
-42 39 -22 109 37 131 8 3 187 6 398 6 l382 1 0 -80z m3920 -345 l0 -85 -2380
0 -2380 0 0 85 0 85 2380 0 2380 0 0 -85z m-4350 -1280 l0 -1015 -80 0 -80 0
0 1015 0 1015 80 0 80 0 0 -1015z m2755 991 c59 -27 106 -77 129 -137 13 -35
16 -73 14 -194 l-3 -150 -18 55 c-65 191 -222 299 -421 288 -91 -5 -166 -33
-237 -90 -53 -42 -114 -134 -130 -198 l-13 -50 -106 0 -106 0 -13 50 c-41 158
-194 279 -367 288 -199 11 -356 -97 -421 -288 l-18 -55 -3 150 c-2 121 1 159
14 194 23 60 70 110 129 137 l50 24 735 0 735 0 50 -24z m1345 -991 l0 -1015
-80 0 -80 0 0 1015 0 1015 80 0 80 0 0 -1015z m-2524 640 c50 -29 100 -98 110
-153 6 -29 -102 -1171 -111 -1180 -2 -2 -28 1 -58 7 -36 7 -76 7 -113 1 -32
-5 -60 -7 -63 -5 -7 8 -110 1052 -111 1123 0 106 41 173 135 219 65 32 144 27
211 -12z m999 11 c88 -42 135 -112 135 -203 0 -42 -118 -1135 -123 -1139 -1
-1 -26 2 -55 7 -32 5 -75 4 -105 -1 -27 -6 -51 -9 -52 -8 -9 15 -125 1148
-120 1176 27 148 186 231 320 168z m-1050 -1527 c31 -13 51 -31 74 -69 42 -70
41 -70 -143 -70 l-165 0 9 31 c30 102 126 148 225 108z m1039 -8 c36 -20 63
-56 75 -98 l10 -33 -165 0 c-184 0 -185 0 -143 70 50 81 143 106 223 61z"/>
<path d="M2300 3070 l0 -90 260 0 260 0 0 90 0 90 -260 0 -260 0 0 -90z"/>
<path d="M4090 3840 l0 -180 90 0 90 0 0 180 0 180 -90 0 -90 0 0 -180z"/>
<path d="M4350 3710 l0 -130 90 0 90 0 0 130 0 130 -90 0 -90 0 0 -130z"/>
</g>
</svg>
