<?xml version="1.0" standalone="no"?>
<!DOCTYPE svg PUBLIC "-//W3C//DTD SVG 20010904//EN"
 "http://www.w3.org/TR/2001/REC-SVG-20010904/DTD/svg10.dtd">
<svg version="1.0" xmlns="http://www.w3.org/2000/svg"
 width="512.000000pt" height="512.000000pt" viewBox="0 0 512.000000 512.000000"
 preserveAspectRatio="xMidYMid meet">
<metadata>
Created by potrace 1.16, written by Peter Selinger 2001-2019
</metadata>
<g transform="translate(0.000000,512.000000) scale(0.100000,-0.100000)"
fill="#ff0000" stroke="none">
<path d="M1127 5099 c-222 -63 -392 -234 -464 -465 -17 -56 -18 -148 -18
-2074 0 -1929 1 -2018 18 -2075 67 -218 235 -392 442 -458 l70 -22 1385 0
1385 0 70 22 c204 65 367 232 442 453 17 52 18 129 21 1598 l2 1542 -725 0
-725 0 0 742 0 743 92 -90 91 -90 -88 98 -89 97 -921 -1 c-880 0 -923 -1 -988
-20z m733 -2869 c165 -31 261 -156 247 -320 -16 -190 -144 -280 -399 -280
l-78 0 0 -165 0 -165 -125 0 -125 0 0 463 c0 255 3 467 7 470 10 11 415 8 473
-3z m840 -15 c182 -58 288 -171 319 -339 41 -227 -40 -420 -216 -514 -97 -52
-162 -62 -395 -62 l-208 0 0 463 c0 255 3 467 8 471 4 5 104 6 222 3 167 -3
227 -8 270 -22z m1115 -80 l0 -100 -212 -3 -213 -2 0 -75 0 -75 170 0 170 0 0
-100 0 -100 -170 0 -170 0 0 -190 0 -190 -120 0 -120 0 0 470 0 470 333 -2
332 -3 0 -100z"/>
<path d="M1630 1935 l0 -95 74 0 c40 0 87 5 105 11 68 24 80 122 18 159 -25
16 -50 20 -114 20 l-83 0 0 -95z"/>
<path d="M2440 1770 l0 -260 73 0 c185 0 274 91 270 273 -4 159 -106 247 -288
247 l-55 0 0 -260z"/>
</g>
</svg>
