<?xml version="1.0" standalone="no"?>
<!DOCTYPE svg PUBLIC "-//W3C//DTD SVG 20010904//EN"
 "http://www.w3.org/TR/2001/REC-SVG-20010904/DTD/svg10.dtd">
<svg version="1.0" xmlns="http://www.w3.org/2000/svg"
 width="512.000000pt" height="512.000000pt" viewBox="0 0 512.000000 512.000000"
 preserveAspectRatio="xMidYMid meet">
<metadata>
Created by potrace 1.16, written by Peter Selinger 2001-2019
</metadata>
<g transform="translate(0.000000,512.000000) scale(0.100000,-0.100000)"
fill="#fff" stroke="none">
<path d="M3971 4964 c-79 -21 -183 -79 -240 -134 -234 -224 -239 -595 -11
-820 113 -111 246 -164 412 -162 157 1 279 53 393 167 299 299 174 813 -230
941 -89 28 -235 32 -324 8z"/>
<path d="M730 4453 c-47 -13 -88 -28 -92 -32 -6 -5 248 -961 348 -1309 l15
-52 567 2 567 3 0 105 0 105 -484 5 -484 5 -160 590 c-89 325 -166 593 -171
597 -13 9 -3 11 -106 -19z"/>
<path d="M4068 3818 c-87 -10 -152 -35 -268 -103 -52 -31 -127 -71 -166 -90
-229 -108 -551 -130 -954 -64 -174 28 -221 27 -289 -8 -146 -75 -184 -273 -74
-394 48 -53 95 -76 191 -94 346 -65 739 -73 996 -19 38 8 71 13 72 11 7 -6
-77 -751 -86 -774 -9 -21 -17 -23 -74 -23 -65 0 -168 -11 -286 -31 -274 -47
-454 -148 -530 -299 -99 -195 -239 -627 -406 -1250 -67 -250 -62 -333 24 -431
52 -60 114 -84 212 -84 98 0 140 18 202 82 48 49 57 73 123 315 106 385 244
807 319 972 38 83 63 105 151 132 114 34 238 44 602 47 312 3 365 6 413 21
168 55 253 150 279 311 6 39 41 336 77 660 75 667 76 718 28 820 -36 76 -147
189 -229 232 -102 53 -215 75 -327 61z"/>
<path d="M4766 3228 c-3 -18 -21 -267 -41 -553 -37 -539 -44 -599 -75 -702
-53 -173 -164 -290 -329 -345 -62 -21 -91 -22 -431 -28 l-365 -5 -3 -172 -2
-173 260 0 260 0 0 -344 0 -344 -127 -4 c-118 -3 -133 -5 -185 -32 -68 -34
-136 -96 -171 -157 -29 -49 -57 -146 -57 -196 l0 -33 124 0 123 0 7 38 c3 22
15 51 27 66 44 56 47 56 441 56 334 0 365 -2 393 -18 31 -19 60 -66 70 -115
l5 -27 120 0 c65 0 121 4 124 9 10 15 -15 135 -38 186 -35 76 -114 157 -188
191 -57 26 -75 29 -191 32 l-127 4 2 361 3 362 65 7 c323 36 505 302 575 844
16 130 85 994 85 1074 l0 50 -175 0 -174 0 -5 -32z"/>
<path d="M0 2835 l0 -145 110 0 110 0 0 -1265 0 -1265 925 0 925 0 0 1265 0
1265 270 0 270 0 0 145 0 145 -1305 0 -1305 0 0 -145z"/>
</g>
</svg>
