<?xml version="1.0" standalone="no"?>
<!DOCTYPE svg PUBLIC "-//W3C//DTD SVG 20010904//EN"
 "http://www.w3.org/TR/2001/REC-SVG-20010904/DTD/svg10.dtd">
<svg version="1.0" xmlns="http://www.w3.org/2000/svg"
 width="512.000000pt" height="512.000000pt" viewBox="0 0 512.000000 512.000000"
 preserveAspectRatio="xMidYMid meet">

<g transform="translate(0.000000,512.000000) scale(0.100000,-0.100000)"
fill="#fff" stroke="none">
<path d="M1700 5106 c-97 -31 -174 -100 -219 -196 -26 -54 -26 -59 -29 -317
l-3 -263 -549 0 c-349 0 -567 -4 -598 -11 -186 -39 -221 -297 -53 -386 41 -22
55 -23 218 -23 158 0 173 -2 173 -17 0 -10 72 -831 159 -1826 l159 -1807 34
-68 c41 -80 108 -139 193 -171 l56 -21 1332 2 1332 3 57 27 c104 49 187 158
202 268 6 46 316 3570 316 3596 0 12 30 14 173 14 163 0 177 1 218 23 168 89
133 347 -53 386 -31 7 -249 11 -598 11 l-549 0 -3 263 c-3 258 -3 263 -29 317
-14 30 -39 70 -55 89 -35 42 -115 93 -170 109 -58 17 -1663 15 -1714 -2z
m1550 -591 l0 -185 -690 0 -690 0 0 185 0 185 690 0 690 0 0 -185z m807 -652
c-3 -27 -72 -812 -153 -1745 l-149 -1698 -1195 0 -1195 0 -149 1703 c-81 936
-150 1721 -153 1745 l-6 42 1503 0 1503 0 -6 -47z"/>
</g>
</svg>
