<?xml version="1.0" standalone="no"?>
<!DOCTYPE svg PUBLIC "-//W3C//DTD SVG 20010904//EN"
 "http://www.w3.org/TR/2001/REC-SVG-20010904/DTD/svg10.dtd">
<svg version="1.0" xmlns="http://www.w3.org/2000/svg"
 width="512.000000pt" height="512.000000pt" viewBox="0 0 512.000000 512.000000"
 preserveAspectRatio="xMidYMid meet">
<metadata>
Created by potrace 1.16, written by Peter Selinger 2001-2019
</metadata>
<g transform="translate(0.000000,512.000000) scale(0.100000,-0.100000)"
fill="#fff" stroke="none">
<path d="M1452 5101 c-40 -10 -112 -38 -160 -61 -72 -36 -104 -60 -183 -139
-83 -84 -102 -109 -142 -191 -73 -154 -77 -179 -77 -553 l0 -327 -121 0 c-151
0 -236 -18 -359 -77 -82 -40 -108 -59 -191 -142 -83 -83 -102 -109 -142 -191
-81 -169 -78 -138 -75 -970 l3 -735 27 -74 c47 -127 94 -199 192 -296 154
-153 311 -215 542 -215 l123 0 3 -402 3 -403 32 -66 c58 -119 148 -198 269
-239 58 -20 84 -20 1384 -18 l1325 3 70 34 c92 45 171 124 216 216 l34 70 3
403 3 402 123 0 c149 0 243 21 366 82 69 34 103 60 180 138 78 77 104 111 138
180 84 168 82 148 82 954 0 805 2 779 -82 946 -34 69 -61 103 -138 180 -77 78
-111 104 -180 138 -123 61 -217 82 -367 82 l-123 0 0 328 c0 374 -6 410 -82
562 -34 69 -61 103 -138 180 -77 78 -111 104 -180 138 -174 86 -106 82 -1274
81 -957 0 -1036 -2 -1104 -18z m2077 -291 c206 -27 364 -185 391 -391 5 -40
10 -190 10 -331 l0 -258 -1370 0 -1370 0 0 258 c0 141 5 291 10 331 26 201
187 365 382 390 91 12 1857 12 1947 1z m890 -1290 c206 -27 364 -185 391 -391
12 -96 12 -1202 0 -1298 -14 -103 -55 -188 -129 -262 -98 -97 -212 -138 -393
-139 l-58 0 0 250 0 250 73 0 c114 0 167 48 167 150 0 62 -20 100 -66 131 -28
18 -83 19 -1844 19 -1761 0 -1816 -1 -1844 -19 -46 -31 -66 -69 -66 -131 0
-102 53 -150 168 -150 l72 0 0 -250 0 -250 -57 0 c-182 1 -296 42 -394 139
-74 74 -115 159 -129 262 -12 96 -12 1202 0 1298 26 201 187 365 382 390 91
12 3636 13 3727 1z m-491 -2347 l-3 -758 -22 -35 c-12 -19 -37 -44 -55 -55
-33 -20 -51 -20 -1288 -20 l-1255 0 -35 22 c-19 12 -44 37 -55 55 -19 32 -20
53 -23 791 l-3 757 1371 0 1371 0 -3 -757z"/>
<path d="M716 3171 c-46 -31 -66 -69 -66 -131 0 -62 20 -100 66 -131 27 -17
52 -19 324 -19 326 0 328 0 371 66 26 39 26 129 0 168 -43 66 -45 66 -371 66
-272 0 -297 -2 -324 -19z"/>
<path d="M2076 1571 c-46 -31 -66 -69 -66 -131 0 -62 20 -100 66 -131 27 -18
55 -19 484 -19 429 0 457 1 484 19 46 31 66 69 66 131 0 62 -20 100 -66 131
-27 18 -55 19 -484 19 -429 0 -457 -1 -484 -19z"/>
<path d="M2076 931 c-46 -31 -66 -69 -66 -131 0 -62 20 -100 66 -131 27 -18
55 -19 484 -19 429 0 457 1 484 19 46 31 66 69 66 131 0 62 -20 100 -66 131
-27 18 -55 19 -484 19 -429 0 -457 -1 -484 -19z"/>
</g>
</svg>
