<?xml version="1.0" standalone="no"?>
<!DOCTYPE svg PUBLIC "-//W3C//DTD SVG 20010904//EN"
 "http://www.w3.org/TR/2001/REC-SVG-20010904/DTD/svg10.dtd">
<svg version="1.0" xmlns="http://www.w3.org/2000/svg"
 width="512.000000pt" height="512.000000pt" viewBox="0 0 512.000000 512.000000"
 preserveAspectRatio="xMidYMid meet">
<metadata>
Created by potrace 1.16, written by Peter Selinger 2001-2019
</metadata>
<g transform="translate(0.000000,512.000000) scale(0.100000,-0.100000)"
fill="#fff" stroke="none">
<path d="M2226 5104 c-935 -120 -1741 -761 -2070 -1645 -71 -192 -124 -415
-145 -611 -14 -125 -14 -451 0 -576 75 -696 447 -1344 1014 -1767 364 -272
769 -434 1225 -491 152 -19 472 -18 630 1 692 86 1314 448 1735 1010 269 359
435 770 490 1215 20 162 20 477 0 640 -44 358 -168 713 -353 1014 -412 671
-1098 1115 -1872 1211 -155 19 -502 18 -654 -1z m584 -405 c367 -41 733 -187
1042 -416 128 -96 331 -298 424 -423 209 -281 340 -579 407 -929 19 -101 22
-149 22 -371 0 -222 -3 -270 -22 -371 -67 -348 -199 -650 -407 -929 -90 -122
-294 -326 -416 -416 -391 -291 -820 -435 -1300 -435 -583 0 -1107 218 -1520
631 -319 318 -516 694 -603 1149 -19 101 -22 149 -22 371 0 222 3 270 22 371
121 628 474 1143 1013 1474 394 242 881 348 1360 294z"/>
<path d="M1732 3474 c-88 -44 -129 -141 -102 -241 12 -44 41 -76 324 -360
l310 -313 -310 -312 c-283 -285 -312 -317 -324 -361 -27 -100 14 -197 102
-241 57 -28 99 -32 162 -14 34 10 91 62 354 322 l312 310 313 -310 c284 -283
316 -312 360 -324 100 -27 197 14 241 102 28 57 32 99 14 162 -10 34 -62 91
-322 354 l-310 312 310 313 c260 262 312 319 322 353 18 63 14 105 -14 162
-44 88 -141 129 -241 102 -44 -12 -76 -41 -360 -324 l-313 -310 -312 310
c-263 260 -320 312 -354 322 -63 18 -105 14 -162 -14z"/>
</g>
</svg>
