<?xml version="1.0" standalone="no"?>
<!DOCTYPE svg PUBLIC "-//W3C//DTD SVG 20010904//EN"
 "http://www.w3.org/TR/2001/REC-SVG-20010904/DTD/svg10.dtd">
<svg version="1.0" xmlns="http://www.w3.org/2000/svg"
 width="512.000000pt" height="512.000000pt" viewBox="0 0 512.000000 512.000000"
 preserveAspectRatio="xMidYMid meet">
<metadata>
Created by potrace 1.16, written by Peter Selinger 2001-2019
</metadata>
<g transform="translate(0.000000,512.000000) scale(0.100000,-0.100000)"
fill="#fff" stroke="none">
<path d="M1344 5100 c-57 -28 -103 -76 -130 -135 -22 -47 -24 -62 -24 -232 l0
-181 -217 -4 c-240 -4 -259 -9 -329 -70 -21 -18 -48 -55 -60 -83 -23 -48 -24
-60 -24 -292 l0 -242 26 -20 c34 -26 64 -27 97 -1 l25 20 4 223 c4 314 -2 307
293 307 l185 0 0 -93 c0 -80 4 -100 26 -145 97 -195 371 -203 481 -14 24 41
28 59 31 149 l4 103 278 0 278 0 4 -103 c3 -90 7 -108 31 -149 107 -183 367
-183 474 0 24 41 28 59 31 149 l4 103 278 0 278 0 4 -103 c3 -90 7 -108 31
-149 107 -183 367 -183 474 0 24 41 28 59 31 149 l4 103 184 0 c203 0 239 -7
271 -56 17 -27 18 -97 21 -1620 l2 -1593 26 -20 c34 -27 64 -27 98 0 l26 20 0
1612 0 1612 -24 50 c-12 28 -39 65 -60 83 -70 61 -89 66 -328 70 l-218 4 0
177 c0 108 -5 191 -12 212 -18 53 -58 104 -112 141 -44 30 -57 33 -132 37 -69
2 -91 -1 -127 -18 -59 -28 -105 -76 -133 -136 -22 -47 -24 -62 -24 -232 l0
-183 -280 0 -280 0 0 183 c0 170 -2 185 -24 232 -48 104 -130 155 -246 155
-116 0 -198 -51 -246 -155 -22 -47 -24 -62 -24 -232 l0 -183 -280 0 -280 0 0
183 c0 170 -2 185 -24 232 -26 56 -88 117 -142 140 -54 22 -169 20 -220 -5z
m192 -174 l34 -34 0 -321 c0 -353 -2 -366 -60 -396 -37 -19 -63 -19 -100 0
-60 31 -60 28 -60 388 l0 329 34 34 c28 28 42 34 76 34 34 0 48 -6 76 -34z
m1100 0 l34 -34 0 -321 c0 -268 -3 -327 -15 -351 -17 -32 -61 -60 -95 -60 -34
0 -78 28 -95 60 -12 24 -15 83 -15 351 l0 321 34 34 c28 28 42 34 76 34 34 0
48 -6 76 -34z m1100 0 l34 -34 0 -326 c0 -358 0 -360 -61 -392 -36 -18 -63
-18 -99 1 -58 30 -60 43 -60 396 l0 321 34 34 c28 28 42 34 76 34 34 0 48 -6
76 -34z"/>
<path d="M580 3610 c-20 -20 -20 -33 -20 -1718 l0 -1698 26 -52 c28 -57 69
-96 129 -123 38 -18 120 -19 1845 -19 1725 0 1807 1 1845 19 60 27 101 66 129
123 l26 52 0 328 c0 315 -1 329 -20 348 -24 24 -77 27 -106 6 -18 -14 -19 -32
-24 -328 -5 -339 -7 -348 -62 -380 -19 -10 -369 -13 -1788 -13 -1665 0 -1767
1 -1793 17 -55 37 -52 -66 -57 1746 -5 1652 -5 1684 -24 1698 -29 21 -82 18
-106 -6z"/>
<path d="M1787 3598 c-14 -13 -103 -117 -198 -233 -94 -115 -180 -218 -189
-229 -17 -18 -19 -16 -60 53 -47 79 -71 101 -111 101 -43 0 -74 -32 -73 -76 0
-31 17 -66 78 -164 42 -69 85 -131 94 -137 9 -7 30 -13 47 -13 17 0 38 6 47
13 17 13 454 537 481 577 56 80 -45 173 -116 108z"/>
<path d="M2113 3319 c-48 -24 -99 -77 -119 -125 -8 -19 -14 -59 -14 -91 1 -96
45 -169 131 -215 l44 -23 829 -3 c914 -3 893 -4 969 59 129 107 105 318 -46
394 l-51 25 -850 0 c-844 0 -851 0 -893 -21z m1734 -159 c30 -27 36 -55 21
-87 -26 -54 -1 -53 -865 -53 l-801 0 -31 26 c-39 33 -41 74 -6 109 l24 25 819
0 c800 0 819 0 839 -20z"/>
<path d="M1787 2608 c-14 -13 -103 -117 -198 -233 -94 -115 -180 -218 -189
-229 -17 -18 -19 -16 -60 53 -47 79 -71 101 -111 101 -43 0 -74 -32 -73 -76 0
-31 17 -66 78 -164 42 -69 85 -131 94 -137 9 -7 30 -13 47 -13 17 0 38 6 47
13 17 13 454 537 481 577 56 80 -45 173 -116 108z"/>
<path d="M2114 2326 c-169 -79 -181 -321 -20 -421 l49 -30 861 0 c821 0 863 1
896 19 49 26 88 65 113 111 29 56 29 155 0 211 -29 54 -92 110 -140 123 -25 7
-315 11 -873 11 l-835 0 -51 -24z m1738 -166 c35 -36 33 -71 -8 -107 l-25 -23
-805 0 c-687 0 -809 2 -833 15 -48 24 -56 81 -16 120 l24 25 816 0 817 0 30
-30z"/>
<path d="M1743 1562 c-32 -37 -125 -150 -208 -249 l-150 -182 -39 62 c-56 90
-74 107 -113 107 -41 0 -83 -37 -83 -73 0 -28 121 -235 166 -283 41 -44 73
-44 118 -1 19 17 136 155 260 305 199 240 226 277 226 307 0 48 -29 75 -80 75
-36 0 -44 -5 -97 -68z"/>
<path d="M2137 1346 c-121 -44 -185 -177 -146 -307 17 -55 65 -108 123 -135
l51 -24 835 0 c558 0 848 4 873 11 48 13 111 69 140 123 29 56 29 155 0 211
-25 46 -64 85 -113 111 -33 18 -77 19 -880 21 -689 2 -852 0 -883 -11z m1707
-168 c41 -37 43 -72 8 -108 l-30 -30 -817 0 -816 0 -24 25 c-40 39 -31 96 20
123 14 8 262 11 827 12 l807 0 25 -22z"/>
</g>
</svg>
