<?xml version="1.0" standalone="no"?>
<!DOCTYPE svg PUBLIC "-//W3C//DTD SVG 20010904//EN"
 "http://www.w3.org/TR/2001/REC-SVG-20010904/DTD/svg10.dtd">
<svg version="1.0" xmlns="http://www.w3.org/2000/svg"
 width="512.000000pt" height="512.000000pt" viewBox="0 0 512.000000 512.000000"
 preserveAspectRatio="xMidYMid meet">
<metadata>
Created by potrace 1.16, written by Peter Selinger 2001-2019
</metadata>
<g transform="translate(0.000000,512.000000) scale(0.100000,-0.100000)"
fill="#fff" stroke="none">
<path d="M580 5100 c-20 -20 -20 -33 -20 -817 l0 -797 -240 -241 -240 -241 0
-1002 c0 -989 0 -1002 20 -1022 19 -19 33 -20 240 -20 l220 0 0 -460 c0 -447
1 -461 20 -480 20 -20 33 -20 1980 -20 1947 0 1960 0 1980 20 19 19 20 33 20
480 l0 460 220 0 c207 0 221 1 240 20 20 20 20 33 20 1022 l0 1002 -240 241
-240 241 0 279 0 280 -538 537 -537 538 -1443 0 c-1429 0 -1442 0 -1462 -20z
m2780 -634 l0 -493 26 -27 27 -26 493 0 494 0 0 -440 0 -440 -120 0 -120 0 0
246 c0 249 -3 274 -39 301 -23 18 -3099 18 -3122 0 -36 -27 -39 -52 -39 -301
l0 -246 -120 0 -120 0 0 960 0 960 1320 0 1320 0 0 -494z m545 -6 l380 -380
-383 0 -382 0 0 380 c0 209 1 380 3 380 1 0 173 -171 382 -380z m95 -1220 l0
-200 -1440 0 -1440 0 0 200 0 200 1440 0 1440 0 0 -200z m-3440 -105 l0 -95
-97 0 -98 0 95 95 c52 52 96 95 97 95 2 0 3 -43 3 -95z m4100 0 l95 -95 -98 0
-97 0 0 95 c0 52 1 95 3 95 1 0 45 -43 97 -95z m220 -1135 l0 -880 -2320 0
-2320 0 0 880 0 880 2320 0 2320 0 0 -880z m-3920 -1286 c0 -249 3 -274 39
-301 23 -18 3099 -18 3122 0 36 27 39 52 39 301 l0 246 120 0 120 0 0 -400 0
-400 -1840 0 -1840 0 0 400 0 400 120 0 120 0 0 -246z m3040 46 l0 -200 -1440
0 -1440 0 0 200 0 200 1440 0 1440 0 0 -200z"/>
<path d="M960 4640 l0 -80 680 0 680 0 0 80 0 80 -680 0 -680 0 0 -80z"/>
<path d="M960 4320 l0 -80 360 0 360 0 0 80 0 80 -360 0 -360 0 0 -80z"/>
<path d="M960 4000 l0 -80 80 0 80 0 0 80 0 80 -80 0 -80 0 0 -80z"/>
<path d="M1280 4000 l0 -80 80 0 80 0 0 80 0 80 -80 0 -80 0 0 -80z"/>
<path d="M1600 4000 l0 -80 80 0 80 0 0 80 0 80 -80 0 -80 0 0 -80z"/>
<path d="M1760 2025 l0 -536 25 -24 24 -25 336 0 335 0 0 80 0 80 -280 0 -280
0 0 480 0 480 -80 0 -80 0 0 -535z"/>
<path d="M2760 2538 c-74 -29 -150 -105 -178 -181 -59 -157 8 -331 156 -404
52 -26 69 -28 202 -33 126 -5 150 -8 180 -27 99 -62 98 -208 -2 -268 -40 -24
-209 -34 -275 -16 -53 14 -99 60 -113 112 l-11 39 -79 0 -80 0 0 -30 c0 -57
41 -142 94 -196 78 -77 132 -94 306 -94 174 0 228 17 306 94 155 155 112 417
-84 513 -52 26 -69 28 -202 33 -126 5 -150 8 -180 27 -99 61 -99 205 0 266 28
18 54 22 135 25 56 2 119 -1 142 -7 53 -14 99 -60 113 -112 l11 -39 79 0 80 0
0 30 c0 100 -97 229 -203 268 -50 19 -78 22 -200 21 -119 0 -151 -3 -197 -21z"/>
<path d="M557 2483 l-57 -58 212 -212 213 -213 -213 -213 -212 -212 57 -58 58
-57 212 212 213 213 213 -213 212 -212 58 57 57 58 -212 212 -213 213 213 213
212 212 -57 58 -58 57 -212 -212 -213 -213 -213 213 -212 212 -58 -57z"/>
<path d="M3597 2483 l-57 -58 212 -212 213 -213 -213 -213 -212 -212 57 -58
58 -57 212 212 213 213 213 -213 212 -212 58 57 57 58 -212 212 -213 213 213
213 212 212 -57 58 -58 57 -212 -212 -213 -213 -213 213 -212 212 -58 -57z"/>
</g>
</svg>
